<mxfile host="app.diagrams.net" agent="Mozilla/5.0 (Windows NT 10.0; Win64; x64) AppleWebKit/537.36 (KHTML, like Gecko) Chrome/132.0.0.0 Safari/537.36 Edg/132.0.0.0" version="26.0.10">
  <diagram name="Page-1" id="b5b7bab2-c9e2-2cf4-8b2a-24fd1a2a6d21">
    <mxGraphModel dx="1097" dy="601" grid="1" gridSize="10" guides="1" tooltips="1" connect="1" arrows="1" fold="1" page="1" pageScale="1" pageWidth="850" pageHeight="1100" background="none" math="0" shadow="0">
      <root>
        <mxCell id="0" />
        <mxCell id="1" parent="0" />
        <mxCell id="6e0c8c40b5770093-72" value="" style="shape=folder;fontStyle=1;spacingTop=10;tabWidth=194;tabHeight=22;tabPosition=left;html=1;rounded=0;shadow=0;comic=0;labelBackgroundColor=none;strokeWidth=1;fillColor=none;fontFamily=Verdana;fontSize=10;align=center;" parent="1" vertex="1">
          <mxGeometry x="320" y="114.5" width="1001" height="940" as="geometry" />
        </mxCell>
        <mxCell id="6e0c8c40b5770093-71" style="edgeStyle=elbowEdgeStyle;rounded=0;html=1;dashed=1;labelBackgroundColor=none;startFill=0;endArrow=open;endFill=0;endSize=10;fontFamily=Verdana;fontSize=10;elbow=vertical;" parent="1" edge="1">
          <mxGeometry relative="1" as="geometry">
            <mxPoint x="1045.5" y="595" as="targetPoint" />
          </mxGeometry>
        </mxCell>
        <mxCell id="6e0c8c40b5770093-64" style="edgeStyle=elbowEdgeStyle;rounded=0;html=1;entryX=0.559;entryY=0.251;entryPerimeter=0;dashed=1;labelBackgroundColor=none;startFill=0;endArrow=open;endFill=0;endSize=10;fontFamily=Verdana;fontSize=10;" parent="1" edge="1">
          <mxGeometry relative="1" as="geometry">
            <mxPoint x="710.1080000000002" y="642.0699999999999" as="targetPoint" />
          </mxGeometry>
        </mxCell>
        <mxCell id="6e0c8c40b5770093-65" style="edgeStyle=none;rounded=0;html=1;dashed=1;labelBackgroundColor=none;startFill=0;endArrow=open;endFill=0;endSize=10;fontFamily=Verdana;fontSize=10;entryX=-0.003;entryY=0.411;entryPerimeter=0;" parent="1" edge="1">
          <mxGeometry relative="1" as="geometry">
            <mxPoint x="739.2069425189293" y="594.5" as="sourcePoint" />
          </mxGeometry>
        </mxCell>
        <mxCell id="6e0c8c40b5770093-66" style="edgeStyle=none;rounded=0;html=1;dashed=1;labelBackgroundColor=none;startFill=0;endArrow=open;endFill=0;endSize=10;fontFamily=Verdana;fontSize=10;entryX=1.013;entryY=0.444;entryPerimeter=0;" parent="1" edge="1">
          <mxGeometry relative="1" as="geometry">
            <mxPoint x="596.9559999999999" y="655.5799999999999" as="targetPoint" />
          </mxGeometry>
        </mxCell>
        <mxCell id="6e0c8c40b5770093-68" style="edgeStyle=elbowEdgeStyle;rounded=0;html=1;entryX=0.628;entryY=0.26;entryPerimeter=0;dashed=1;labelBackgroundColor=none;startFill=0;endArrow=open;endFill=0;endSize=10;fontFamily=Verdana;fontSize=10;" parent="1" edge="1">
          <mxGeometry relative="1" as="geometry">
            <mxPoint x="658.1399999999999" y="972.7694795496325" as="targetPoint" />
          </mxGeometry>
        </mxCell>
        <mxCell id="6e0c8c40b5770093-69" style="edgeStyle=elbowEdgeStyle;rounded=0;html=1;entryX=0.643;entryY=0.246;entryPerimeter=0;dashed=1;labelBackgroundColor=none;startFill=0;endArrow=open;endFill=0;endSize=10;fontFamily=Verdana;fontSize=10;" parent="1" edge="1">
          <mxGeometry relative="1" as="geometry">
            <mxPoint x="827.0900000000001" y="971.7894795496325" as="targetPoint" />
          </mxGeometry>
        </mxCell>
        <mxCell id="6e0c8c40b5770093-60" style="rounded=0;html=1;entryX=0.452;entryY=0.1;entryPerimeter=0;dashed=1;labelBackgroundColor=none;startFill=0;endArrow=open;endFill=0;endSize=10;fontFamily=Verdana;fontSize=10;" parent="1" edge="1">
          <mxGeometry relative="1" as="geometry">
            <mxPoint x="673.2800000000002" y="498.5" as="targetPoint" />
          </mxGeometry>
        </mxCell>
        <mxCell id="6e0c8c40b5770093-61" style="edgeStyle=none;rounded=0;html=1;entryX=0.69;entryY=0.102;entryPerimeter=0;dashed=1;labelBackgroundColor=none;startFill=0;endArrow=open;endFill=0;endSize=10;fontFamily=Verdana;fontSize=10;" parent="1" edge="1">
          <mxGeometry relative="1" as="geometry">
            <mxPoint x="795.8499999999999" y="498.98" as="targetPoint" />
          </mxGeometry>
        </mxCell>
        <mxCell id="6e0c8c40b5770093-62" style="edgeStyle=none;rounded=0;html=1;dashed=1;labelBackgroundColor=none;startFill=0;endArrow=open;endFill=0;endSize=10;fontFamily=Verdana;fontSize=10;exitX=1.002;exitY=0.668;exitPerimeter=0;" parent="1" edge="1">
          <mxGeometry relative="1" as="geometry">
            <mxPoint x="1045.5" y="446.2804978399506" as="targetPoint" />
          </mxGeometry>
        </mxCell>
        <mxCell id="6e0c8c40b5770093-63" style="edgeStyle=orthogonalEdgeStyle;rounded=0;html=1;dashed=1;labelBackgroundColor=none;startFill=0;endArrow=open;endFill=0;endSize=10;fontFamily=Verdana;fontSize=10;" parent="1" edge="1">
          <mxGeometry relative="1" as="geometry">
            <Array as="points">
              <mxPoint x="665.5" y="359.5" />
              <mxPoint x="665.5" y="464.5" />
            </Array>
            <mxPoint x="1045.5" y="464.5" as="targetPoint" />
          </mxGeometry>
        </mxCell>
        <mxCell id="6e0c8c40b5770093-73" value="HCAR Client Database System" style="text;html=1;align=left;verticalAlign=top;spacingTop=-4;fontSize=10;fontFamily=Verdana" parent="1" vertex="1">
          <mxGeometry x="327.5" y="114.5" width="130" height="20" as="geometry" />
        </mxCell>
        <mxCell id="m-TA7gw5yVFQkf53OFNT-5" value="" style="group" parent="1" vertex="1" connectable="0">
          <mxGeometry x="520" y="180" width="630" height="200" as="geometry" />
        </mxCell>
        <mxCell id="m-TA7gw5yVFQkf53OFNT-3" value="" style="shape=folder;fontStyle=1;spacingTop=10;tabWidth=180;tabHeight=20;tabPosition=left;html=1;whiteSpace=wrap;" parent="m-TA7gw5yVFQkf53OFNT-5" vertex="1">
          <mxGeometry width="630" height="200" as="geometry" />
        </mxCell>
        <mxCell id="m-TA7gw5yVFQkf53OFNT-4" value="Presentation Tier" style="text;html=1;align=left;verticalAlign=middle;whiteSpace=wrap;rounded=0;" parent="m-TA7gw5yVFQkf53OFNT-5" vertex="1">
          <mxGeometry width="180" height="20" as="geometry" />
        </mxCell>
        <mxCell id="m-TA7gw5yVFQkf53OFNT-12" value="User Facing Website" style="shape=folder;fontStyle=1;spacingTop=10;tabWidth=40;tabHeight=14;tabPosition=left;html=1;whiteSpace=wrap;" parent="m-TA7gw5yVFQkf53OFNT-5" vertex="1">
          <mxGeometry x="60" y="55" width="180" height="90" as="geometry" />
        </mxCell>
        <mxCell id="m-TA7gw5yVFQkf53OFNT-6" value="" style="group" parent="1" vertex="1" connectable="0">
          <mxGeometry x="520" y="430" width="630" height="200" as="geometry" />
        </mxCell>
        <mxCell id="m-TA7gw5yVFQkf53OFNT-7" value="" style="shape=folder;fontStyle=1;spacingTop=10;tabWidth=180;tabHeight=20;tabPosition=left;html=1;whiteSpace=wrap;" parent="m-TA7gw5yVFQkf53OFNT-6" vertex="1">
          <mxGeometry width="630" height="200" as="geometry" />
        </mxCell>
        <mxCell id="m-TA7gw5yVFQkf53OFNT-8" value="Application Tier" style="text;html=1;align=left;verticalAlign=middle;whiteSpace=wrap;rounded=0;" parent="m-TA7gw5yVFQkf53OFNT-6" vertex="1">
          <mxGeometry width="180" height="20" as="geometry" />
        </mxCell>
        <mxCell id="m-TA7gw5yVFQkf53OFNT-9" value="" style="group" parent="1" vertex="1" connectable="0">
          <mxGeometry x="520" y="730" width="630" height="200" as="geometry" />
        </mxCell>
        <mxCell id="m-TA7gw5yVFQkf53OFNT-10" value="" style="shape=folder;fontStyle=1;spacingTop=10;tabWidth=180;tabHeight=20;tabPosition=left;html=1;whiteSpace=wrap;" parent="m-TA7gw5yVFQkf53OFNT-9" vertex="1">
          <mxGeometry width="630" height="200" as="geometry" />
        </mxCell>
        <mxCell id="m-TA7gw5yVFQkf53OFNT-11" value="Data Tier" style="text;html=1;align=left;verticalAlign=middle;whiteSpace=wrap;rounded=0;" parent="m-TA7gw5yVFQkf53OFNT-9" vertex="1">
          <mxGeometry width="180" height="20" as="geometry" />
        </mxCell>
        <mxCell id="m-TA7gw5yVFQkf53OFNT-14" value="Cloud Storage&lt;br&gt;(Potentially @ Nylex)" style="shape=folder;fontStyle=1;spacingTop=10;tabWidth=40;tabHeight=14;tabPosition=left;html=1;whiteSpace=wrap;" parent="m-TA7gw5yVFQkf53OFNT-9" vertex="1">
          <mxGeometry x="30" y="60" width="170" height="100" as="geometry" />
        </mxCell>
        <mxCell id="m-TA7gw5yVFQkf53OFNT-15" value="Cloud Database" style="shape=folder;fontStyle=1;spacingTop=10;tabWidth=40;tabHeight=14;tabPosition=left;html=1;whiteSpace=wrap;" parent="m-TA7gw5yVFQkf53OFNT-9" vertex="1">
          <mxGeometry x="320" y="60" width="180" height="100" as="geometry" />
        </mxCell>
        <mxCell id="Qj5owKkvN9V9y0JYiYVC-5" style="edgeStyle=orthogonalEdgeStyle;rounded=0;orthogonalLoop=1;jettySize=auto;html=1;entryX=0.448;entryY=0.175;entryDx=0;entryDy=0;entryPerimeter=0;" edge="1" parent="1" source="m-TA7gw5yVFQkf53OFNT-13" target="m-TA7gw5yVFQkf53OFNT-15">
          <mxGeometry relative="1" as="geometry">
            <Array as="points">
              <mxPoint x="840" y="685" />
              <mxPoint x="921" y="685" />
            </Array>
          </mxGeometry>
        </mxCell>
        <mxCell id="Qj5owKkvN9V9y0JYiYVC-6" value="Query for Client Data" style="edgeLabel;html=1;align=center;verticalAlign=middle;resizable=0;points=[];" vertex="1" connectable="0" parent="Qj5owKkvN9V9y0JYiYVC-5">
          <mxGeometry x="-0.0903" y="1" relative="1" as="geometry">
            <mxPoint as="offset" />
          </mxGeometry>
        </mxCell>
        <mxCell id="Qj5owKkvN9V9y0JYiYVC-9" style="edgeStyle=orthogonalEdgeStyle;rounded=0;orthogonalLoop=1;jettySize=auto;html=1;entryX=0.515;entryY=0.167;entryDx=0;entryDy=0;entryPerimeter=0;" edge="1" parent="1" source="m-TA7gw5yVFQkf53OFNT-13" target="m-TA7gw5yVFQkf53OFNT-14">
          <mxGeometry relative="1" as="geometry" />
        </mxCell>
        <mxCell id="Qj5owKkvN9V9y0JYiYVC-10" value="Request Client Photos &lt;br&gt;and Documents" style="edgeLabel;html=1;align=center;verticalAlign=middle;resizable=0;points=[];" vertex="1" connectable="0" parent="Qj5owKkvN9V9y0JYiYVC-9">
          <mxGeometry x="0.1911" y="1" relative="1" as="geometry">
            <mxPoint x="40" as="offset" />
          </mxGeometry>
        </mxCell>
        <mxCell id="m-TA7gw5yVFQkf53OFNT-13" value="Server Backend" style="shape=folder;fontStyle=1;spacingTop=10;tabWidth=40;tabHeight=14;tabPosition=left;html=1;whiteSpace=wrap;" parent="1" vertex="1">
          <mxGeometry x="710" y="490" width="160" height="90" as="geometry" />
        </mxCell>
        <mxCell id="Qj5owKkvN9V9y0JYiYVC-1" style="edgeStyle=orthogonalEdgeStyle;rounded=0;orthogonalLoop=1;jettySize=auto;html=1;" edge="1" parent="1" source="m-TA7gw5yVFQkf53OFNT-16" target="m-TA7gw5yVFQkf53OFNT-12">
          <mxGeometry relative="1" as="geometry" />
        </mxCell>
        <mxCell id="Qj5owKkvN9V9y0JYiYVC-2" value="Logs In" style="edgeLabel;html=1;align=center;verticalAlign=middle;resizable=0;points=[];" vertex="1" connectable="0" parent="Qj5owKkvN9V9y0JYiYVC-1">
          <mxGeometry x="-0.13" y="2" relative="1" as="geometry">
            <mxPoint as="offset" />
          </mxGeometry>
        </mxCell>
        <mxCell id="m-TA7gw5yVFQkf53OFNT-16" value="HCAR Staff" style="shape=umlActor;verticalLabelPosition=bottom;verticalAlign=top;html=1;outlineConnect=0;" parent="1" vertex="1">
          <mxGeometry x="190" y="205" width="80" height="150" as="geometry" />
        </mxCell>
        <mxCell id="Qj5owKkvN9V9y0JYiYVC-3" style="edgeStyle=orthogonalEdgeStyle;rounded=0;orthogonalLoop=1;jettySize=auto;html=1;entryX=0.495;entryY=0.177;entryDx=0;entryDy=0;entryPerimeter=0;" edge="1" parent="1" source="m-TA7gw5yVFQkf53OFNT-12" target="m-TA7gw5yVFQkf53OFNT-13">
          <mxGeometry relative="1" as="geometry" />
        </mxCell>
        <mxCell id="Qj5owKkvN9V9y0JYiYVC-4" value="Send Queries" style="edgeLabel;html=1;align=center;verticalAlign=middle;resizable=0;points=[];" vertex="1" connectable="0" parent="Qj5owKkvN9V9y0JYiYVC-3">
          <mxGeometry x="-0.056" relative="1" as="geometry">
            <mxPoint as="offset" />
          </mxGeometry>
        </mxCell>
        <mxCell id="Qj5owKkvN9V9y0JYiYVC-7" style="edgeStyle=orthogonalEdgeStyle;rounded=0;orthogonalLoop=1;jettySize=auto;html=1;entryX=0;entryY=0;entryDx=160;entryDy=71;entryPerimeter=0;exitX=0;exitY=0;exitDx=110;exitDy=14;exitPerimeter=0;" edge="1" parent="1" source="m-TA7gw5yVFQkf53OFNT-15" target="m-TA7gw5yVFQkf53OFNT-13">
          <mxGeometry relative="1" as="geometry" />
        </mxCell>
        <mxCell id="Qj5owKkvN9V9y0JYiYVC-8" value="Fulfillment of Client query&amp;nbsp;" style="edgeLabel;html=1;align=center;verticalAlign=middle;resizable=0;points=[];" vertex="1" connectable="0" parent="Qj5owKkvN9V9y0JYiYVC-7">
          <mxGeometry x="-0.2682" y="-1" relative="1" as="geometry">
            <mxPoint x="9" y="-36" as="offset" />
          </mxGeometry>
        </mxCell>
        <mxCell id="Qj5owKkvN9V9y0JYiYVC-12" style="edgeStyle=orthogonalEdgeStyle;rounded=0;orthogonalLoop=1;jettySize=auto;html=1;entryX=-0.005;entryY=0.519;entryDx=0;entryDy=0;entryPerimeter=0;exitX=0.357;exitY=0.182;exitDx=0;exitDy=0;exitPerimeter=0;" edge="1" parent="1" source="m-TA7gw5yVFQkf53OFNT-14" target="m-TA7gw5yVFQkf53OFNT-13">
          <mxGeometry relative="1" as="geometry">
            <Array as="points">
              <mxPoint x="611" y="537" />
            </Array>
          </mxGeometry>
        </mxCell>
        <mxCell id="Qj5owKkvN9V9y0JYiYVC-13" value="Fulfillment of Photo/Document request" style="edgeLabel;html=1;align=center;verticalAlign=middle;resizable=0;points=[];" vertex="1" connectable="0" parent="Qj5owKkvN9V9y0JYiYVC-12">
          <mxGeometry x="-0.1894" y="2" relative="1" as="geometry">
            <mxPoint as="offset" />
          </mxGeometry>
        </mxCell>
        <mxCell id="Qj5owKkvN9V9y0JYiYVC-15" style="edgeStyle=orthogonalEdgeStyle;rounded=0;orthogonalLoop=1;jettySize=auto;html=1;entryX=0;entryY=0;entryDx=180;entryDy=52;entryPerimeter=0;exitX=0.692;exitY=0.177;exitDx=0;exitDy=0;exitPerimeter=0;" edge="1" parent="1" source="m-TA7gw5yVFQkf53OFNT-13" target="m-TA7gw5yVFQkf53OFNT-12">
          <mxGeometry relative="1" as="geometry" />
        </mxCell>
        <mxCell id="Qj5owKkvN9V9y0JYiYVC-16" value="Return Results of Query" style="edgeLabel;html=1;align=center;verticalAlign=middle;resizable=0;points=[];" vertex="1" connectable="0" parent="Qj5owKkvN9V9y0JYiYVC-15">
          <mxGeometry x="-0.3232" relative="1" as="geometry">
            <mxPoint x="39" as="offset" />
          </mxGeometry>
        </mxCell>
        <mxCell id="Qj5owKkvN9V9y0JYiYVC-18" style="edgeStyle=orthogonalEdgeStyle;rounded=0;orthogonalLoop=1;jettySize=auto;html=1;exitX=0;exitY=0;exitDx=0;exitDy=71;exitPerimeter=0;" edge="1" parent="1" source="m-TA7gw5yVFQkf53OFNT-12" target="m-TA7gw5yVFQkf53OFNT-16">
          <mxGeometry relative="1" as="geometry">
            <Array as="points">
              <mxPoint x="350" y="306" />
              <mxPoint x="350" y="306" />
            </Array>
          </mxGeometry>
        </mxCell>
        <mxCell id="Qj5owKkvN9V9y0JYiYVC-19" value="Displays Client Information&lt;div&gt;&lt;br&gt;&lt;/div&gt;" style="edgeLabel;html=1;align=center;verticalAlign=middle;resizable=0;points=[];" vertex="1" connectable="0" parent="Qj5owKkvN9V9y0JYiYVC-18">
          <mxGeometry x="0.127" y="3" relative="1" as="geometry">
            <mxPoint as="offset" />
          </mxGeometry>
        </mxCell>
      </root>
    </mxGraphModel>
  </diagram>
</mxfile>
